<svg width="40" height="40" viewBox="0 0 40 40" fill="none" xmlns="http://www.w3.org/2000/svg">
<rect width="40" height="40" rx="6" fill="#EAF2FF"/>
<path d="M20.692 11.8167C20.2527 11.6163 19.748 11.6163 19.3087 11.8167L12.167 15.0667C11.8649 15.1999 11.6699 15.499 11.6699 15.8292C11.6699 16.1594 11.8649 16.4585 12.167 16.5917L19.317 19.85C19.7564 20.0504 20.261 20.0504 20.7004 19.85L27.8504 16.6C28.1525 16.4668 28.3475 16.1677 28.3475 15.8375C28.3475 15.5073 28.1525 15.2082 27.8504 15.075L20.692 11.8167" stroke="#0F1724" stroke-width="1.66667" stroke-linecap="round" stroke-linejoin="round"/>
<path d="M11.667 20C11.6662 20.3255 11.8549 20.6216 12.1503 20.7583L19.317 24.0167C19.754 24.2145 20.255 24.2145 20.692 24.0167L27.842 20.7667C28.1434 20.6312 28.3363 20.3304 28.3337 20" stroke="#0F1724" stroke-width="1.66667" stroke-linecap="round" stroke-linejoin="round"/>
<path d="M11.667 24.1667C11.6662 24.4921 11.8549 24.7883 12.1503 24.925L19.317 28.1833C19.754 28.3812 20.255 28.3812 20.692 28.1833L27.842 24.9333C28.1434 24.7979 28.3363 24.4971 28.3337 24.1667" stroke="#0F1724" stroke-width="1.66667" stroke-linecap="round" stroke-linejoin="round"/>
</svg>
