<svg width="17" height="19" viewBox="0 0 17 19" fill="none" xmlns="http://www.w3.org/2000/svg">
<path d="M6.88957 16.6667C7.1873 17.1823 7.73749 17.4999 8.3329 17.4999C8.92832 17.4999 9.4785 17.1823 9.77624 16.6667M1.05124 11.9383C0.828811 12.1821 0.771201 12.5342 0.904325 12.8362C1.03745 13.1381 1.33623 13.3331 1.66624 13.3333H14.9996C15.3295 13.3335 15.6285 13.1389 15.762 12.8371C15.8955 12.5353 15.8383 12.1832 15.6162 11.9392C14.5079 10.7967 13.3329 9.5825 13.3329 5.83334C13.3329 3.07376 11.0925 0.833336 8.3329 0.833336C5.57333 0.833336 3.3329 3.07376 3.3329 5.83334C3.3329 9.5825 2.15707 10.7967 1.05124 11.9383" stroke="#6B7280" stroke-width="1.66667" stroke-linecap="round" stroke-linejoin="round"/>
</svg>
