<svg width="18" height="18" viewBox="0 0 18 18" fill="none" xmlns="http://www.w3.org/2000/svg">
<path d="M1.54651 9.26103C1.48401 9.09264 1.48401 8.90741 1.54651 8.73903C2.79153 5.72021 5.73454 3.75049 9.00001 3.75049C12.2655 3.75049 15.2085 5.72021 16.4535 8.73903C16.516 8.90741 16.516 9.09264 16.4535 9.26103C15.2085 12.2798 12.2655 14.2496 9.00001 14.2496C5.73454 14.2496 2.79153 12.2798 1.54651 9.26103" stroke="#7B8794" stroke-width="1.5" stroke-linecap="round" stroke-linejoin="round"/>
<path d="M6.75 9C6.75 10.2418 7.75819 11.25 9 11.25C10.2418 11.25 11.25 10.2418 11.25 9C11.25 7.75819 10.2418 6.75 9 6.75C7.75819 6.75 6.75 7.75819 6.75 9V9" stroke="#7B8794" stroke-width="1.5" stroke-linecap="round" stroke-linejoin="round"/>
</svg>
