<svg width="14" height="14" viewBox="0 0 14 14" fill="none" xmlns="http://www.w3.org/2000/svg">
<path d="M8.79984 0.666687C9.15153 0.671696 9.487 0.815468 9.73317 1.06669L12.2665 3.60002C12.5177 3.84619 12.6615 4.18166 12.6665 4.53335V11.3334C12.6665 12.0692 12.0691 12.6667 11.3332 12.6667H1.99984C1.26395 12.6667 0.666504 12.0692 0.666504 11.3334V2.00002C0.666504 1.26413 1.26395 0.666687 1.99984 0.666687H8.79984" stroke="white" stroke-width="1.33333" stroke-linecap="round" stroke-linejoin="round"/>
<path d="M9.99967 12.6667V8.00002C9.99967 7.63208 9.70095 7.33335 9.33301 7.33335H3.99967C3.63173 7.33335 3.33301 7.63208 3.33301 8.00002V12.6667M3.33301 0.666687V3.33335C3.33301 3.7013 3.63173 4.00002 3.99967 4.00002H8.66634" stroke="white" stroke-width="1.33333" stroke-linecap="round" stroke-linejoin="round"/>
</svg>
